<svg width="16" height="16" viewBox="0 0 16 16" fill="none" xmlns="http://www.w3.org/2000/svg">
<path d="M13.8866 5.34002L9.51992 1.84668C8.66659 1.16668 7.33325 1.16001 6.48656 1.84001L2.11989 5.34002C1.49323 5.84002 1.11323 6.84 1.24656 7.62667L2.08656 12.6533C2.27989 13.78 3.32656 14.6667 4.46656 14.6667H11.5333C12.6599 14.6667 13.7266 13.76 13.9199 12.6467L14.7599 7.62C14.8799 6.84 14.4999 5.84002 13.8866 5.34002ZM8.49992 12C8.49992 12.2733 8.27325 12.5 7.99992 12.5C7.72659 12.5 7.49992 12.2733 7.49992 12V10C7.49992 9.72667 7.72659 9.5 7.99992 9.5C8.27325 9.5 8.49992 9.72667 8.49992 10V12Z" fill="#1E1E22"/>
</svg>
