<svg width="14" height="14" viewBox="0 0 14 14" fill="none" xmlns="http://www.w3.org/2000/svg">
<path d="M9.79338 0.333334H4.20671C1.78004 0.333334 0.333374 1.78 0.333374 4.20667V9.78667C0.333374 12.22 1.78004 13.6667 4.20671 13.6667H9.78671C12.2134 13.6667 13.66 12.22 13.66 9.79333V4.20667C13.6667 1.78 12.22 0.333334 9.79338 0.333334ZM8.86004 7.35333L6.50671 9.70667C6.40671 9.80667 6.28004 9.85333 6.15337 9.85333C6.02671 9.85333 5.90004 9.80667 5.80004 9.70667C5.60671 9.51333 5.60671 9.19333 5.80004 9L7.80004 7L5.80004 5C5.60671 4.80667 5.60671 4.48667 5.80004 4.29333C5.99337 4.1 6.31337 4.1 6.50671 4.29333L8.86004 6.64667C9.06004 6.84 9.06004 7.16 8.86004 7.35333Z" fill="#1F44FF"/>
</svg>
