<svg width="100%" height="10000" viewBox="0 0 356 10000" xmlns="http://www.w3.org/2000/svg">
<path fill-rule="evenodd" clip-rule="evenodd" d="M212.553 19.8362C216.395 26.405 222.669 32 230.278 32H314.4C328.961 32 336.242 32 341.804 34.8338C346.696 37.3265 350.673 41.304 353.166 46.1962C356 51.758 356 59.0386 356 73.6V9958.4C356 9972.96 356 9980.24 353.166 9985.8C350.673 9990.7 346.696 9994.67 341.804 9997.17C336.242 10000 328.961 10000 314.4 10000H41.6C27.0386 10000 19.758 10000 14.1962 9997.17C9.30403 9994.67 5.32654 9990.7 2.83383 9985.8C0 9980.24 0 9972.96 0 9958.4V73.5998C0 59.0386 0 51.758 2.83383 46.1962C5.32654 41.304 9.30403 37.3265 14.1962 34.8338C19.758 32 27.0386 32 41.6 32H125.722C133.331 32 139.605 26.405 143.447 19.8362C150.386 7.97057 163.262 0 178 0C192.738 0 205.614 7.97058 212.553 19.8362Z" fill="black"/>
</svg>
