<svg width="356" height="10000" viewBox="0 0 356 10000" xmlns="http://www.w3.org/2000/svg">
<path fill-rule="evenodd" clip-rule="evenodd" d="M212.553 19.8362C216.395 26.405 222.669 32 230.278 32H317.6C331.041 32 337.762 32 342.896 34.6158C347.412 36.9168 351.083 40.5883 353.384 45.1042C356 50.2381 356 56.9587 356 70.4V9984C356 9992.84 348.837 10000 340 10000H16C7.16344 10000 0 9992.84 0 9984V70.4004C0 56.9589 0 50.2381 2.61584 45.1042C4.9168 40.5883 8.58834 36.9168 13.1042 34.6158C18.2381 32 24.9587 32 38.4 32H125.722C133.331 32 139.605 26.405 143.447 19.8362C150.386 7.97057 163.262 0 178 0C192.738 0 205.614 7.97058 212.553 19.8362Z" fill="black"/>
</svg>
