<svg width="16" height="16" viewBox="0 0 16 16" fill="none" xmlns="http://www.w3.org/2000/svg">
<path d="M13.1925 2.81355C11.2192 0.84688 8.01922 0.84688 6.0592 2.81355C4.6792 4.18021 4.26587 6.14688 4.7992 7.88021L1.66587 11.0135C1.44587 11.2402 1.29254 11.6869 1.3392 12.0069L1.5392 13.4602C1.61254 13.9402 2.0592 14.3935 2.5392 14.4602L3.99254 14.6602C4.31254 14.7069 4.7592 14.5602 4.98587 14.3269L5.53254 13.7802C5.66587 13.6535 5.66587 13.4402 5.53254 13.3069L4.2392 12.0135C4.04587 11.8202 4.04587 11.5002 4.2392 11.3069C4.43254 11.1135 4.75254 11.1135 4.94587 11.3069L6.24587 12.6069C6.37254 12.7335 6.58587 12.7335 6.71255 12.6069L8.12588 11.2002C9.85255 11.7402 11.8192 11.3202 13.1925 9.95354C15.1592 7.98687 15.1592 4.78021 13.1925 2.81355ZM9.66588 8.00021C8.74588 8.00021 7.99922 7.25354 7.99922 6.33355C7.99922 5.41355 8.74588 4.66688 9.66588 4.66688C10.5859 4.66688 11.3325 5.41355 11.3325 6.33355C11.3325 7.25354 10.5859 8.00021 9.66588 8.00021Z" fill="#1E1E22"/>
</svg>
