<?xml version="1.0" encoding="utf-8"?>
<svg version="1.1" xmlns="http://www.w3.org/2000/svg" xmlns:xlink="http://www.w3.org/1999/xlink"
	 viewBox="0 0 206 175" xml:space="preserve" fill="#1E1E22">
		<path d="M40.1,145.1v8.4H26V22.3h154.4v114h-14.1v-9.2h6.9V31.1h-17.5V73h-5v-2.3h3.1V31.1h-17.5v51.1h-2.3V31.1H34.7
			v114H40.1z"/>
		<path d="M70.6,153.8v-8.8h26.7v8.8H70.6z"/>
		<path d="M127.8,153.5v-8.4h6.1V95.5h1.9v32h13v8.8h-6.5v17.2H127.8z"/>
		<path d="M72.7,90.2h-0.8v-1.9h-2.5v1.9h-0.8v-4.5h0.8v1.8h2.5v-1.8h0.8V90.2z"/>
		<path d="M77.7,89.1l0.2,0.6c-0.4,0.4-1,0.6-1.7,0.6c-0.7,0-1.3-0.2-1.7-0.6c-0.4-0.4-0.7-1-0.7-1.7
			c0-0.7,0.2-1.2,0.6-1.7c0.4-0.4,1-0.7,1.7-0.7c0.6,0,1.1,0.2,1.5,0.6c0.4,0.4,0.6,0.9,0.6,1.5c0,0.2,0,0.4,0,0.5h-3.4
			c0,0.4,0.2,0.7,0.5,1c0.3,0.2,0.6,0.4,1.1,0.4C76.9,89.5,77.4,89.4,77.7,89.1z M76.1,86.4c-0.4,0-0.7,0.1-1,0.3
			c-0.3,0.2-0.4,0.5-0.4,0.9h2.7c0-0.4-0.1-0.7-0.4-0.9C76.8,86.5,76.5,86.4,76.1,86.4z"/>
		<path d="M80.3,86.5h-1.6v-0.8h4.1v0.8h-1.6v3.7h-0.8V86.5z"/>
		<path d="M89.8,90.2H89v-3.7h-2.4v3.7h-0.8v-4.5h4V90.2z"/>
		<path d="M95.1,90.2h-0.8v-3.7h-1.6l0,0.8c-0.1,0.6-0.1,1.1-0.2,1.5c-0.1,0.4-0.2,0.7-0.4,0.9
			c-0.2,0.2-0.3,0.3-0.5,0.4c-0.2,0.1-0.4,0.1-0.7,0.1l-0.1-0.8c0.1,0,0.1,0,0.2,0c0.1,0,0.2-0.1,0.3-0.2c0.1-0.1,0.2-0.2,0.3-0.4
			c0.1-0.2,0.1-0.4,0.2-0.7c0.1-0.3,0.1-0.7,0.1-1l0.1-1.4h3.1V90.2z"/>
		<path d="M96.8,86.6L96.6,86c0.4-0.3,0.9-0.4,1.5-0.4c0.6,0,1,0.1,1.3,0.4c0.3,0.3,0.4,0.8,0.4,1.4v2.7H99v-0.6
			c-0.4,0.4-0.8,0.6-1.4,0.6c-0.4,0-0.7-0.1-1-0.4c-0.3-0.3-0.4-0.6-0.4-1c0-0.4,0.2-0.8,0.5-1c0.3-0.3,0.7-0.4,1.2-0.4
			c0.5,0,0.8,0.1,1.1,0.3c0-0.5-0.1-0.9-0.2-1.1c-0.1-0.2-0.4-0.3-0.8-0.3C97.6,86.3,97.2,86.4,96.8,86.6z M97.9,89.5
			c0.4,0,0.8-0.2,1.1-0.6v-0.6c-0.3-0.2-0.6-0.3-1-0.3c-0.3,0-0.5,0.1-0.7,0.2c-0.2,0.1-0.3,0.3-0.3,0.5c0,0.2,0.1,0.4,0.2,0.5
			C97.4,89.5,97.6,89.5,97.9,89.5z"/>
		<path d="M105.2,90.2h-0.8v-1.9h-2.5v1.9h-0.8v-4.5h0.8v1.8h2.5v-1.8h0.8V90.2z"/>
		<path d="M110,86.8l-2.6,3.3h-0.8v-4.5h0.8V89l2.6-3.3h0.8v4.5H110V86.8z"/>
		<path d="M113,92.2h-0.8v-6.4h0.8v0.5c0.2-0.2,0.4-0.3,0.7-0.4c0.3-0.1,0.6-0.2,0.9-0.2c0.6,0,1.1,0.2,1.5,0.6
			c0.4,0.4,0.6,1,0.6,1.6c0,0.7-0.2,1.3-0.6,1.7c-0.4,0.5-1,0.7-1.7,0.7c-0.5,0-1-0.1-1.3-0.3V92.2z M114.3,86.4
			c-0.5,0-1,0.2-1.3,0.6v2.2c0.4,0.2,0.7,0.3,1.2,0.3c0.5,0,0.8-0.1,1.1-0.4c0.3-0.3,0.4-0.7,0.4-1.2c0-0.5-0.1-0.8-0.4-1.1
			C115.1,86.5,114.7,86.4,114.3,86.4z"/>
		<path d="M118.1,89.6c-0.4-0.4-0.7-1-0.7-1.7c0-0.7,0.2-1.2,0.7-1.7c0.4-0.4,1-0.7,1.7-0.7c0.7,0,1.3,0.2,1.7,0.7
			c0.4,0.4,0.7,1,0.7,1.7c0,0.7-0.2,1.2-0.7,1.7c-0.4,0.4-1,0.7-1.7,0.7C119.1,90.3,118.5,90,118.1,89.6z M118.7,86.8
			c-0.3,0.3-0.4,0.7-0.4,1.1c0,0.5,0.1,0.8,0.4,1.1c0.3,0.3,0.7,0.4,1.1,0.4c0.4,0,0.8-0.1,1.1-0.4c0.3-0.3,0.4-0.7,0.4-1.1
			c0-0.5-0.1-0.8-0.4-1.1c-0.3-0.3-0.7-0.4-1.1-0.4C119.3,86.4,119,86.5,118.7,86.8z"/>
		<path d="M123.3,90.2v-4.5c0,0,0.1,0,0.1,0c0.1,0,0.1,0,0.3,0c0.1,0,0.2,0,0.3,0c0.5,0,0.8,0,0.9,0
			c1.3,0,1.9,0.4,1.9,1.1c0,0.3-0.1,0.5-0.2,0.7c-0.2,0.2-0.4,0.3-0.6,0.3v0c0.7,0.1,1,0.5,1,1.1c0,0.9-0.7,1.3-2.1,1.3
			c-0.1,0-0.4,0-0.9,0c-0.1,0-0.2,0-0.3,0c-0.1,0-0.2,0-0.3,0C123.4,90.2,123.4,90.2,123.3,90.2z M125.1,88.2h-1v1.4
			c0.5,0,0.8,0,0.9,0c0.8,0,1.1-0.2,1.1-0.7C126.2,88.4,125.8,88.2,125.1,88.2z M125,86.3c-0.2,0-0.5,0-0.9,0v1.3h1
			c0.3,0,0.5-0.1,0.7-0.2c0.2-0.1,0.2-0.3,0.2-0.5C126,86.5,125.7,86.3,125,86.3z"/>
		<path d="M131.1,85.7h1l-2,2.1l2.1,2.3h-1.1l-2-2.3L131.1,85.7z M129,90.2h-0.8v-4.5h0.8V90.2z"/>
		<path d="M136.5,86.8l-2.6,3.3h-0.8v-4.5h0.8V89l2.6-3.3h0.8v4.5h-0.8V86.8z"/>
</svg>
