<svg width="340" height="64" viewBox="0 0 340 64" xmlns="http://www.w3.org/2000/svg">
<path d="M103.318 63.5H0.5V32C0.5 26.3912 0.500389 22.2147 0.770823 18.9048C1.04078 15.6006 1.57734 13.2041 2.62537 11.1472C4.4949 7.47802 7.47802 4.4949 11.1472 2.62537C13.2041 1.57734 15.6006 1.04078 18.9048 0.770823C22.2147 0.500389 26.3912 0.5 32 0.5H308C313.609 0.5 317.785 0.500389 321.095 0.770823C324.399 1.04078 326.796 1.57734 328.853 2.62537C332.522 4.4949 335.505 7.47802 337.375 11.1472C338.423 13.2041 338.959 15.6006 339.229 18.9048C339.5 22.2147 339.5 26.3912 339.5 32V63.5H236.682C233.905 63.5 231.755 62.2646 229.951 60.3577C228.135 58.4371 226.694 55.8604 225.356 53.2331C224.349 51.2574 222.743 49.6511 220.767 48.6444C219.615 48.0576 218.307 47.7767 216.609 47.6379C214.921 47.5 212.804 47.5 210.023 47.5H210H130H129.977C127.196 47.5 125.079 47.5 123.391 47.6379C121.693 47.7767 120.385 48.0576 119.233 48.6444C117.257 49.6511 115.651 51.2574 114.644 53.2331C113.306 55.8604 111.865 58.4371 110.049 60.3577C108.245 62.2646 106.095 63.5 103.318 63.5Z" fill="black" />
</svg>
